<?xml version="1.0" encoding="UTF-8" standalone="no"?>
<!DOCTYPE svg PUBLIC "-//W3C//DTD SVG 20010904//EN"
              "http://www.w3.org/TR/2001/REC-SVG-20010904/DTD/svg10.dtd">

<svg xmlns="http://www.w3.org/2000/svg"
     width="3.6in" height="3.6in"
     viewBox="0 0 1080 1080">
  <path id="Path"
        fill="none" stroke="black" stroke-width="1"
        d="M 161.45,377.92
           C 161.45,377.92 386.55,377.92 386.55,377.92
             386.55,377.92 386.55,433.00 386.55,433.00
             386.55,433.00 161.45,433.00 161.45,433.00
             161.45,433.00 161.45,377.92 161.45,377.92 Z
           M 159.00,238.50
           C 159.00,238.50 379.50,238.50 379.50,238.50
             379.50,238.50 381.00,291.00 381.00,291.00
             381.00,291.00 159.00,292.50 159.00,292.50
             159.00,292.50 159.00,238.50 159.00,238.50 Z
           M 166.94,100.00
           C 166.94,100.00 376.72,100.00 376.72,100.00
             376.72,100.00 376.72,155.53 376.72,155.53
             376.72,155.53 166.94,155.53 166.94,155.53
             166.94,155.53 166.94,100.00 166.94,100.00 Z
           M 543.02,377.92
           C 543.02,377.92 688.58,377.92 688.58,377.92
             688.58,377.92 688.58,433.00 688.58,433.00
             688.58,433.00 474.45,433.00 474.45,433.00
             474.45,433.00 474.45,100.00 474.45,100.00
             474.45,100.00 543.02,100.00 543.02,100.00
             543.02,100.00 543.02,377.92 543.02,377.92 Z
           M 931.91,155.53
           C 931.91,155.53 830.00,155.53 830.00,155.53
             830.00,155.53 830.00,433.00 830.00,433.00
             830.00,433.00 761.44,433.00 761.44,433.00
             761.44,433.00 761.44,155.53 761.44,155.53
             761.44,155.53 660.89,155.53 660.89,155.53
             660.89,155.53 660.89,100.00 660.89,100.00
             660.89,100.00 931.91,100.00 931.91,100.00
             931.91,100.00 931.91,155.53 931.91,155.53 Z
           M 261.86,983.00
           C 261.86,983.00 193.30,983.00 193.30,983.00
             193.30,983.00 193.30,650.00 193.30,650.00
             193.30,650.00 261.86,650.00 261.86,650.00
             261.86,650.00 261.86,983.00 261.86,983.00 Z
           M 595.52,983.00
           C 595.52,983.00 526.97,983.00 526.97,983.00
             526.97,983.00 393.52,763.89 393.52,763.89
             393.52,763.89 393.52,983.00 393.52,983.00
             393.52,983.00 324.95,983.00 324.95,983.00
             324.95,983.00 324.95,650.00 324.95,650.00
             324.95,650.00 393.52,650.00 393.52,650.00
             393.52,650.00 527.19,869.56 527.19,869.56
             527.19,869.56 527.19,650.00 527.19,650.00
             527.19,650.00 595.52,650.00 595.52,650.00
             595.52,650.00 595.52,983.00 595.52,983.00 Z
           M 759.16,849.44
           C 759.16,849.44 723.52,887.86 723.52,887.86
             723.52,887.86 723.52,983.00 723.52,983.00
             723.52,983.00 654.95,983.00 654.95,983.00
             654.95,983.00 654.95,650.00 654.95,650.00
             654.95,650.00 723.52,650.00 723.52,650.00
             723.52,650.00 723.52,800.95 723.52,800.95
             723.52,800.95 753.67,759.56 753.67,759.56
             753.67,759.56 838.45,650.00 838.45,650.00
             838.45,650.00 922.78,650.00 922.78,650.00
             922.78,650.00 804.64,797.97 804.64,797.97
             804.64,797.97 926.20,983.00 926.20,983.00
             926.20,983.00 844.62,983.00 844.62,983.00
             844.62,983.00 759.16,849.44 759.16,849.44 Z
           M -103.50,259.50" />
</svg>
