<svg style="position: absolute; width: 0; height: 0;" width="0" height="0" version="1.1" xmlns="http://www.w3.org/2000/svg" xmlns:xlink="http://www.w3.org/1999/xlink">
    <defs>
        <symbol id="icon-google-plus-square" viewBox="0 0 878 1024">
            <title>google-plus-square</title>
            <path class="path1" d="M524 517.143q0-14.857-3.429-36.571h-206.857v75.429h124q-1.714 13.714-9.429 28.571t-21.429 30.286-38 25.429-55.143 10q-56.571 0-96.571-40.571t-40-97.714 40-97.714 96.571-40.571q52.571 0 87.429 33.714l59.429-57.714q-61.714-57.143-146.857-57.143-91.429 0-155.429 64.286t-64 155.143 64 155.143 155.429 64.286q94.286 0 152.286-60t58-154.286zM721.143 543.429h62.286v-62.857h-62.286v-62.857h-62.857v62.857h-62.857v62.857h62.857v62.857h62.857v-62.857zM877.714 237.714v548.571q0 68-48.286 116.286t-116.286 48.286h-548.571q-68 0-116.286-48.286t-48.286-116.286v-548.571q0-68 48.286-116.286t116.286-48.286h548.571q68 0 116.286 48.286t48.286 116.286z"></path>
        </symbol>
        <symbol id="icon-facebook-square" viewBox="0 0 878 1024">
            <title>facebook-square</title>
            <path class="path1" d="M713.143 73.143q68 0 116.286 48.286t48.286 116.286v548.571q0 68-48.286 116.286t-116.286 48.286h-107.429v-340h113.714l17.143-132.571h-130.857v-84.571q0-32 13.429-48t52.286-16l69.714-0.571v-118.286q-36-5.143-101.714-5.143-77.714 0-124.286 45.714t-46.571 129.143v97.714h-114.286v132.571h114.286v340h-304q-68 0-116.286-48.286t-48.286-116.286v-548.571q0-68 48.286-116.286t116.286-48.286h548.571z"></path>
        </symbol>
        <symbol id="icon-twitter-square" viewBox="0 0 878 1024">
            <title>twitter-square</title>
            <path class="path1" d="M731.429 348.571q-32 14.286-69.143 19.429 38.857-22.857 53.143-66.857-37.143 21.714-76.571 29.143-34.857-37.714-87.429-37.714-49.714 0-84.857 35.143t-35.143 84.857q0 16.571 2.857 27.429-73.714-4-138.286-37.143t-109.714-88.571q-16.571 28.571-16.571 60.571 0 65.143 52 100-26.857-0.571-57.143-14.857v1.143q0 42.857 28.571 76.286t70.286 41.429q-16.571 4.571-29.143 4.571-7.429 0-22.286-2.286 12 36 42.571 59.429t69.429 24q-66.286 51.429-149.143 51.429-14.857 0-28.571-1.714 84.571 53.714 184 53.714 64 0 120-20.286t96-54.286 68.857-78.286 42.857-92.571 14-96.286q0-10.286-0.571-15.429 36-25.714 60-62.286zM877.714 237.714v548.571q0 68-48.286 116.286t-116.286 48.286h-548.571q-68 0-116.286-48.286t-48.286-116.286v-548.571q0-68 48.286-116.286t116.286-48.286h548.571q68 0 116.286 48.286t48.286 116.286z"></path>
        </symbol>
        <symbol id="icon-code" viewBox="0 0 1097 1024">
            <title>code</title>
            <path class="path1" d="M352.571 799.429l-28.571 28.571q-5.714 5.714-13.143 5.714t-13.143-5.714l-266.286-266.286q-5.714-5.714-5.714-13.143t5.714-13.143l266.286-266.286q5.714-5.714 13.143-5.714t13.143 5.714l28.571 28.571q5.714 5.714 5.714 13.143t-5.714 13.143l-224.571 224.571 224.571 224.571q5.714 5.714 5.714 13.143t-5.714 13.143zM690.286 189.714l-213.143 737.714q-2.286 7.429-8.857 11.143t-13.429 1.429l-35.429-9.714q-7.429-2.286-11.143-8.857t-1.429-14l213.143-737.714q2.286-7.429 8.857-11.143t13.429-1.429l35.429 9.714q7.429 2.286 11.143 8.857t1.429 14zM1065.714 561.714l-266.286 266.286q-5.714 5.714-13.143 5.714t-13.143-5.714l-28.571-28.571q-5.714-5.714-5.714-13.143t5.714-13.143l224.571-224.571-224.571-224.571q-5.714-5.714-5.714-13.143t5.714-13.143l28.571-28.571q5.714-5.714 13.143-5.714t13.143 5.714l266.286 266.286q5.714 5.714 5.714 13.143t-5.714 13.143z"></path>
        </symbol>
        <symbol id="icon-design" viewBox="0 0 1019 1024">
            <title>design</title>
            <path class="path1" d="M507.429 676.571l66.286-66.286-86.857-86.857-66.286 66.286v32h54.857v54.857h32zM758.857 265.143q-9.143-9.143-18.857 0.571l-200 200q-9.714 9.714-0.571 18.857t18.857-0.571l200-200q9.714-9.714 0.571-18.857zM804.571 604.571v108.571q0 68-48.286 116.286t-116.286 48.286h-475.429q-68 0-116.286-48.286t-48.286-116.286v-475.429q0-68 48.286-116.286t116.286-48.286h475.429q36 0 66.857 14.286 8.571 4 10.286 13.143 1.714 9.714-5.143 16.571l-28 28q-8 8-18.286 4.571-13.143-3.429-25.714-3.429h-475.429q-37.714 0-64.571 26.857t-26.857 64.571v475.429q0 37.714 26.857 64.571t64.571 26.857h475.429q37.714 0 64.571-26.857t26.857-64.571v-72q0-7.429 5.143-12.571l36.571-36.571q8.571-8.571 20-4t11.429 16.571zM749.714 182.857l164.571 164.571-384 384h-164.571v-164.571zM1003.429 258.286l-52.571 52.571-164.571-164.571 52.571-52.571q16-16 38.857-16t38.857 16l86.857 86.857q16 16 16 38.857t-16 38.857z"></path>
        </symbol>
        <symbol id="icon-twitter" viewBox="0 0 951 1024">
            <title>twitter</title>
            <path class="path1" d="M925.714 233.143q-38.286 56-92.571 95.429 0.571 8 0.571 24 0 74.286-21.714 148.286t-66 142-105.429 120.286-147.429 83.429-184.571 31.143q-154.857 0-283.429-82.857 20 2.286 44.571 2.286 128.571 0 229.143-78.857-60-1.143-107.429-36.857t-65.143-91.143q18.857 2.857 34.857 2.857 24.571 0 48.571-6.286-64-13.143-106-63.714t-42-117.429v-2.286q38.857 21.714 83.429 23.429-37.714-25.143-60-65.714t-22.286-88q0-50.286 25.143-93.143 69.143 85.143 168.286 136.286t212.286 56.857q-4.571-21.714-4.571-42.286 0-76.571 54-130.571t130.571-54q80 0 134.857 58.286 62.286-12 117.143-44.571-21.143 65.714-81.143 101.714 53.143-5.714 106.286-28.571z"></path>
        </symbol>
        <symbol id="icon-tag" viewBox="0 0 896 1024">
            <title>tag</title>
            <path class="path1" d="M384 64h-256l-128 128v256l512 512 384-384-512-512zM64 416v-192l96-96h192l448 448-288 288-448-448zM448 320l-192 192 256 256 192-192-256-256zM352 512l96-96 160 160-96 96-160-160zM320 288c0-53-43-96-96-96s-96 43-96 96 43 96 96 96 96-43 96-96zM224 320c-17.656 0-32-14.344-32-32s14.344-32 32-32 32 14.344 32 32-14.344 32-32 32z"></path>
        </symbol>
        <symbol id="icon-sync" viewBox="0 0 768 1024">
            <title>sync</title>
            <path class="path1" d="M655.461 473.469c11.875 81.719-13.062 167.781-76.812 230.594-94.188 92.938-239.5 104.375-346.375 34.562l74.875-73-275.189-38.375 38.407 268.75 84.031-80.5c150.907 111.25 364.938 100.75 502.063-34.562 79.5-78.438 115.75-182.562 111.25-285.312l-112.25-22.157zM189.46 320.062c94.156-92.938 239.438-104.438 346.313-34.562l-75 72.969 275.188 38.406-38.375-268.875-83.938 80.688c-150.937-111.344-364.906-100.719-502.063 34.562-79.5 78.406-115.718 182.531-111.25 285.25l112.25 22.125c-11.875-81.75 13.125-167.719 76.875-230.563z"></path>
        </symbol>
        <symbol id="icon-clock" viewBox="0 0 896 1024">
            <title>clock</title>
            <path class="path1" d="M384 576h256l64-64-64-64h-128v-192l-64-64-64 64v320zM448 64c-247.438 0-448 200.562-448 448s200.562 448 448 448c247.438 0 448-200.562 448-448s-200.562-448-448-448zM448 832c-176.25 0-320-143.75-320-320 0-175.938 144.188-319.5 320-320 175.812 0.5 320 144.062 320 320 0 176.25-143.75 320-320 320z"></path>
        </symbol>
        <symbol id="icon-issue" viewBox="0 0 896 1024">
            <title>issue</title>
            <path class="path1" d="M448 64c-247.438 0-448 200.562-448 448s200.562 448 448 448c247.438 0 448-200.562 448-448s-200.562-448-448-448zM448 832c-176.781 0-320-143.25-320-320 0-176.781 143.219-320 320-320 176.75 0 320 143.219 320 320 0 176.75-143.25 320-320 320zM384 768h128v-128h-128v128zM384 576h128v-320h-128v320z"></path>
        </symbol>
        <symbol id="icon-fork" viewBox="0 0 768 1024">
            <title>fork</title>
            <path class="path1" d="M768 128c0-71-57-128-128-128s-128 57-128 128c0 47 26 89 64 111v106l-192 212-192-212v-106c38-22 64-63 64-111 0-71-57-128-128-128s-128 57-128 128c0 47 26 89 64 111v156l256 282v109c-38 22-64 63-64 111 0 71 57 128 128 128s128-57 128-128c0-47-26-89-64-111v-109l256-282v-156c38-22 64-63 64-111zM128 65c34 0 62 28 62 62s-28 62-62 62-62-28-62-62 28-62 62-62zM384 956c-34 0-62-28-62-62s28-62 62-62 62 28 62 62-28 62-62 62zM640 65c34 0 62 28 62 62s-28 62-62 62-62-28-62-62 28-62 62-62z"></path>
        </symbol>
        <symbol id="icon-star" viewBox="0 0 896 1024">
            <title>star</title>
            <path class="path1" d="M896 384l-313.5-40.781-134.5-279.219-134.531 279.219-313.469 40.781 230.469 208.875-59.469 303.063 277-148.812 277.062 148.812-59.562-303.063 230.5-208.875z"></path>
        </symbol>
        <symbol id="icon-upload" viewBox="0 0 1024 1024">
            <title>upload</title>
            <path class="path1" d="M512 384l-192 192h128v320h128v-320h128l-192-192zM832 320c-8.75 0-17.125 1.406-25.625 2.562-48.75-114.374-162.25-194.562-294.375-194.562-132.156 0-245.562 80.188-294.406 194.562-8.438-1.156-16.813-2.562-25.594-2.562-106.062 0-192 86-192 192 0 106.062 85.938 192 192 192 20.531 0 39.875-4.25 58.375-10.438 34.094 37.813 80.937 63.188 133.625 70.938v-65.25c-49.844-10.375-91.594-42.812-112.625-87.75-21.844 17.5-49.156 28.5-79.375 28.5-70.656 0-128-57.375-128-128 0-70.656 57.344-128 128-128 25.281 0 48.625 7.562 68.406 20.156 20.938-120.375 125.188-212.156 251.594-212.156 126.5 0 229.75 92.219 250.5 212.75 20-13 43.875-20.75 69.5-20.75 70.625 0 128 57.344 128 128 0 70.625-57.375 128-128 128-10.25 0-20-1.5-29.625-3.75-28.937 40.875-76.437 67.75-130.375 67.75-11.062 0-21.625-1.625-32-4v64.938c10.438 1.688 21.062 3.062 32 3.062 61.188 0 116.5-24.688 157-64.438 1 0 1.875 0.438 3 0.438 106.062 0 192-85.938 192-192 0-106-85.938-192-192-192z"></path>
        </symbol>
        <symbol id="icon-rss" viewBox="0 0 768 1024">
            <title>rss</title>
            <path class="path1" d="M128 640c-70.656 0-128 57.375-128 128s57.344 128 128 128 128-57.375 128-128-57.344-128-128-128zM128 384c0 0-64 2-64 64s64 64 64 64c141.375 0 256 114.625 256 256 0 0 0 64 64 64s64-64 64-64c0-212-171.969-384-384-384zM128 128c0 0-64 0-64 64s64 64 64 64c282.75 0 512 229.25 512 512 0 0 0 64 64 64s64-64 64-64c0-353.406-286.5-640-640-640z"></path>
        </symbol>
        <symbol id="icon-github" viewBox="0 0 1024 1024">
            <title>github</title>
            <path class="path1" d="M512 0c-282.75 0-512 229.25-512 512 0 226.25 146.688 418.125 350.156 485.812 25.594 4.688 34.938-11.125 34.938-24.625 0-12.188-0.469-52.562-0.719-95.312-142.375 30.937-172.469-60.375-172.469-60.375-23.312-59.125-56.844-74.875-56.844-74.875-46.531-31.75 3.53-31.125 3.53-31.125 51.406 3.562 78.47 52.75 78.47 52.75 45.688 78.25 119.875 55.625 149 42.5 4.654-33 17.904-55.625 32.5-68.375-113.656-12.937-233.218-56.875-233.218-253.063 0-55.938 19.969-101.562 52.656-137.406-5.219-13-22.844-65.094 5.062-135.562 0 0 42.938-13.75 140.812 52.5 40.812-11.406 84.594-17.031 128.125-17.219 43.5 0.188 87.312 5.875 128.188 17.281 97.688-66.312 140.688-52.5 140.688-52.5 28 70.531 10.375 122.562 5.125 135.5 32.812 35.844 52.625 81.469 52.625 137.406 0 196.688-119.75 240-233.812 252.688 18.438 15.875 34.75 47 34.75 94.75 0 68.438-0.688 123.625-0.688 140.5 0 13.625 9.312 29.562 35.25 24.562 203.313-67.812 349.875-259.687 349.875-485.812 0-282.75-229.25-512-512-512z"></path>
        </symbol>
        <symbol id="logo" viewBox="0 0 712 512">
            <path d="M518,368.345l41.538,47.822L698,256.76L559.538,97.353L518,145.175l96.923,111.585L518,368.345z"/>
            <path d="M191,144l-41.539-48L11,256l138.461,160L191,368L94.077,256L191,144z"/>
            <polygon points="280.999,416.212 216.999,416.212 429.353,96.687 493.353,96.687 "/>
            <rect x="273.915" y="93.407" transform="matrix(0.8003 -0.5995 0.5995 0.8003 -33.8665 204.2018)" width="31.499" height="119.085"/>
            <rect x="423.04" y="280.727" transform="matrix(0.8004 -0.5995 0.5995 0.8004 -122.9363 333.1746)" width="31.5" height="140.896"/>
        </symbol>
    </defs>
</svg>
