<?xml version="1.0" encoding="UTF-8" standalone="no"?>
<!DOCTYPE svg PUBLIC "-//W3C//DTD SVG 1.1//EN" "http://www.w3.org/Graphics/SVG/1.1/DTD/svg11.dtd">
<svg width="100%" height="100%" viewBox="0 0 1024 1024" version="1.1" xmlns="http://www.w3.org/2000/svg" xmlns:xlink="http://www.w3.org/1999/xlink" xml:space="preserve" xmlns:serif="http://www.serif.com/" style="fill-rule:evenodd;clip-rule:evenodd;stroke-linejoin:round;stroke-miterlimit:2;">
    <g transform="matrix(1,0,0,1,-493.084,399.723)">
        <g transform="matrix(800,0,0,800,495.709,373.605)">
            <path d="M0.484,-0.25L0.338,-0.25L0.338,-0.35L0.604,-0.35L0.604,-0.02C0.594,-0.016 0.582,-0.013 0.567,-0.009C0.552,-0.005 0.535,-0.001 0.516,0.002C0.497,0.005 0.478,0.007 0.458,0.009C0.438,0.011 0.418,0.012 0.399,0.012C0.34,0.012 0.289,0.004 0.245,-0.011C0.202,-0.027 0.165,-0.049 0.136,-0.078C0.107,-0.107 0.085,-0.141 0.071,-0.18C0.056,-0.22 0.049,-0.264 0.049,-0.312C0.049,-0.345 0.053,-0.378 0.06,-0.408C0.068,-0.439 0.079,-0.468 0.094,-0.494C0.109,-0.52 0.127,-0.544 0.148,-0.565C0.169,-0.586 0.193,-0.604 0.22,-0.619C0.248,-0.634 0.277,-0.646 0.31,-0.654C0.342,-0.662 0.377,-0.666 0.414,-0.666C0.447,-0.666 0.478,-0.663 0.508,-0.658C0.537,-0.654 0.562,-0.648 0.581,-0.641L0.581,-0.54C0.555,-0.548 0.53,-0.554 0.504,-0.558C0.478,-0.562 0.452,-0.564 0.425,-0.564C0.39,-0.564 0.357,-0.559 0.326,-0.549C0.295,-0.538 0.268,-0.522 0.245,-0.502C0.223,-0.481 0.205,-0.456 0.192,-0.425C0.179,-0.395 0.172,-0.36 0.172,-0.32C0.173,-0.243 0.193,-0.185 0.233,-0.147C0.273,-0.108 0.33,-0.089 0.403,-0.089C0.417,-0.089 0.431,-0.09 0.446,-0.091C0.46,-0.093 0.473,-0.094 0.484,-0.097L0.484,-0.25Z" style="fill:rgb(255,155,0);fill-rule:nonzero;"/>
        </g>
        <g transform="matrix(800,0,0,800,1033.6,373.605)">
            <path d="M0.061,-0.653L0.535,-0.653L0.535,-0.553L0.061,-0.553L0.061,-0.653ZM0.096,-0.384L0.5,-0.384L0.5,-0.284L0.096,-0.284L0.096,-0.384ZM0.044,-0.1L0.552,-0.1L0.552,-0L0.044,-0L0.044,-0.1Z" style="fill:rgb(255,155,0);fill-rule:nonzero;"/>
        </g>
    </g>
</svg>
