<svg viewBox="0 0 1024 1024" xmlns="http://www.w3.org/2000/svg" fill-rule="evenodd" clip-rule="evenodd" stroke-linejoin="round" stroke-miterlimit="2"><path d="M389.825 573.328h-116.8v-80h212.8v264c-8 3.2-17.6 5.6-29.6 8.8-12 3.2-25.6 6.4-40.8 8.8-15.2 2.4-30.4 4-46.4 5.6-16 1.6-32 2.4-47.2 2.4-47.2 0-88-6.4-123.2-18.4-34.4-12.8-64-30.4-87.2-53.6-23.2-23.2-40.8-50.4-52-81.6-12-32-17.6-67.2-17.6-105.6 0-26.4 3.2-52.8 8.8-76.8 6.4-24.8 15.2-48 27.2-68.8 12-20.8 26.4-40 43.2-56.8 16.8-16.8 36-31.2 57.6-43.2 22.4-12 45.6-21.6 72-28 25.6-6.4 53.6-9.6 83.2-9.6 26.4 0 51.2 2.4 75.2 6.4 23.2 3.2 43.2 8 58.4 13.6v80.8c-20.8-6.4-40.8-11.2-61.6-14.4-20.8-3.2-41.6-4.8-63.2-4.8-28 0-54.4 4-79.2 12-24.8 8.8-46.4 21.6-64.8 37.6-17.6 16.8-32 36.8-42.4 61.6-10.4 24-16 52-16 84 .8 61.6 16.8 108 48.8 138.4 32 31.2 77.6 46.4 136 46.4 11.2 0 22.4-.8 34.4-1.6 11.2-1.6 21.6-2.4 30.4-4.8v-122.4zM589.316 250.928h379.2v80h-379.2v-80zm28 215.2h323.2v80h-323.2v-80zm-41.6 227.2h406.4v80h-406.4v-80z" fill="#ff9b00" fill-rule="nonzero"/></svg>
